<svg version="1.1" xmlns="http://www.w3.org/2000/svg" viewBox="-277.2 -1025.2 5589.4 4620.099999999999"><desc>Created with Snap</desc><defs></defs><g><rect x="-277.2" y="-1025.2" width="5589.4" height="4620.099999999999" fill="#ff5376" style=""></rect><g transform="matrix(91.4464,0,0,91.4464,322.7857,-187.2643)"><g><path fill="#292929" d="M43.5,34h-39V10h39V34z M6.5,32h35V12h-35V32z" style=""></path><rect x="1.5" y="10" fill="#292929" width="45" height="2" style=""></rect><path fill="#292929" d="M39.5,30h-10V14h10V30z M31.5,28h6V16h-6V28z" style=""></path><path fill="#292929" d="M27.5,30h-19V14h19V30z M10.5,28h15V16h-15V28z" style=""></path><rect x="16" y="18" fill="#292929" width="4" height="2" style=""></rect><rect x="33.5" y="18" fill="#292929" width="2" height="2" style=""></rect><g><rect x="10.3" y="36" fill="#292929" width="6" height="2" style=""></rect><rect x="31.7" y="36" fill="#292929" width="6" height="2" style=""></rect></g></g><desc>Created with Snap</desc><defs></defs></g><g><g transform="matrix(0.5,0,0,-0.5,0,0)"><path d="M1154 1098Q1154 1016 1113 945Q1073 874 1008 822Q944 770 865 740Q786 711 709 713L693 713L693 731Q759 745 817 779Q876 814 919 864Q963 914 988 976Q1014 1038 1014 1106Q1014 1151 1003 1191Q992 1231 969 1260Q946 1289 910 1306Q875 1323 826 1323Q756 1323 684 1302Q612 1281 545 1243Q478 1205 419 1153Q361 1101 317 1039Q274 977 249 907Q224 837 224 764Q224 686 246 629Q269 573 307 530Q346 488 397 458Q448 428 506 403Q564 379 624 358Q685 337 743 313Q801 289 852 259Q903 230 941 189Q980 149 1002 93Q1025 38 1025 -37Q1025 -119 991 -183Q958 -247 903 -291Q848 -334 777 -357Q706 -379 631 -379Q550 -379 481 -352Q412 -324 357 -278Q302 -231 261 -171Q220 -110 195 -45L210 -37Q240 -90 279 -142Q318 -193 367 -234Q416 -274 475 -299Q535 -324 605 -324Q662 -324 711 -308Q760 -292 796 -262Q832 -232 852 -188Q873 -144 873 -88Q873 -6 838 47Q803 100 746 137Q689 174 616 200Q543 226 466 252Q390 279 317 312Q244 346 187 397Q130 448 95 523Q60 599 60 709Q60 809 91 897Q122 986 176 1060Q231 1134 305 1192Q379 1251 464 1292Q550 1333 643 1354Q736 1376 830 1376Q897 1376 956 1360Q1016 1344 1059 1310Q1103 1277 1128 1224Q1154 1171 1154 1098ZM1408 807Q1408 787 1399 767Q1390 747 1375 731Q1361 716 1342 706Q1323 696 1303 696Q1277 696 1261 713Q1246 730 1246 756Q1246 776 1255 795Q1264 815 1278 830Q1293 845 1311 854Q1330 864 1350 864Q1376 864 1392 848Q1408 832 1408 807ZM1682 147L1688 143Q1665 105 1633 73Q1602 42 1564 18Q1527 -5 1484 -18Q1442 -31 1397 -31Q1341 -31 1297 -12Q1254 7 1224 40Q1195 74 1179 119Q1164 165 1164 219Q1164 277 1181 329Q1198 381 1228 426Q1258 472 1298 510Q1339 548 1385 578L1397 569Q1348 511 1317 439Q1287 367 1287 289Q1287 244 1297 202Q1308 161 1330 129Q1353 97 1388 78Q1423 59 1473 59Q1532 59 1585 84Q1639 109 1682 147ZM2816 147L2822 143Q2804 107 2779 73Q2754 40 2723 14Q2692 -12 2654 -28Q2617 -43 2573 -43Q2511 -43 2472 -1Q2433 41 2408 108Q2384 176 2370 261Q2356 347 2346 434Q2323 393 2303 348Q2284 304 2266 255Q2248 206 2230 154Q2212 102 2191 47Q2186 35 2180 20Q2174 6 2164 -8Q2155 -21 2142 -30Q2129 -39 2111 -39Q2098 -39 2088 -33Q2078 -27 2070 -19Q2063 -10 2057 0Q2052 11 2048 20Q2028 65 2016 112Q2004 159 1995 209Q1987 259 1981 315Q1975 371 1969 434Q1948 385 1931 340Q1915 296 1899 251Q1884 207 1868 159Q1853 112 1836 57Q1832 44 1827 29Q1823 15 1816 3Q1810 -9 1799 -17Q1789 -25 1773 -25Q1747 -25 1735 -9Q1723 8 1715 30Q1703 60 1692 113Q1681 167 1672 230Q1663 293 1658 360Q1653 427 1653 485Q1653 541 1683 567Q1713 594 1762 594Q1765 594 1771 594Q1777 594 1783 592Q1789 591 1793 588Q1798 585 1797 580Q1788 510 1785 447Q1782 384 1783 324Q1784 265 1789 207Q1795 150 1804 90Q1821 147 1837 199Q1854 251 1872 302Q1890 353 1910 405Q1931 458 1955 516Q1968 546 1982 558Q1997 570 2020 570Q2049 570 2065 548Q2082 526 2087 498Q2095 447 2101 393Q2107 340 2114 286Q2121 232 2131 179Q2141 127 2157 78Q2177 130 2197 186Q2217 243 2238 300Q2259 357 2282 412Q2306 467 2333 516Q2346 539 2362 554Q2379 570 2404 570Q2418 570 2429 563Q2440 557 2448 546Q2456 536 2461 523Q2466 511 2468 498Q2473 469 2477 423Q2482 377 2489 325Q2497 273 2508 220Q2519 168 2536 125Q2553 83 2577 56Q2601 29 2635 29Q2663 29 2689 39Q2715 50 2738 66Q2761 83 2780 104Q2800 126 2816 147ZM3424 354Q3424 298 3402 237Q3381 177 3343 127Q3305 77 3252 44Q3200 12 3138 12Q3116 12 3093 19Q3071 27 3052 41Q3034 56 3022 76Q3011 96 3011 121Q3011 133 3021 141Q3031 150 3043 150Q3058 150 3068 135Q3079 120 3091 102Q3104 85 3121 70Q3139 55 3168 55Q3204 55 3232 79Q3260 104 3279 139Q3298 174 3308 213Q3318 253 3318 283Q3318 321 3308 358Q3298 395 3277 423Q3257 452 3225 469Q3194 487 3152 487Q3103 487 3069 454Q3036 421 3014 369Q2993 318 2981 254Q2970 190 2964 127Q2959 65 2958 12Q2957 -41 2957 -72Q2957 -217 2949 -334Q2941 -450 2927 -544Q2913 -638 2894 -711Q2875 -783 2853 -840L2828 -840L2828 -362Q2828 -143 2820 73Q2812 290 2812 510Q2812 533 2821 548Q2831 564 2846 574Q2862 584 2882 588Q2902 592 2923 592Q2929 592 2943 589Q2957 587 2957 578Q2957 508 2956 440Q2955 372 2953 303Q2967 351 2989 402Q3011 454 3043 496Q3075 538 3119 565Q3163 592 3222 592Q3272 592 3309 572Q3347 552 3372 519Q3398 486 3411 443Q3424 400 3424 354ZM4041 114L4050 110Q4018 44 3960 5Q3902 -33 3828 -33Q3767 -33 3719 4Q3671 41 3634 101Q3598 161 3572 236Q3547 312 3530 390Q3514 468 3506 540Q3499 613 3499 667Q3499 733 3506 812Q3513 891 3529 971Q3545 1052 3570 1128Q3596 1204 3632 1262Q3669 1321 3717 1356Q3765 1392 3827 1392Q3880 1392 3913 1361Q3946 1330 3965 1284Q3984 1239 3990 1188Q3997 1137 3997 1097Q3997 989 3971 884Q3946 780 3901 687Q3857 595 3797 519Q3737 444 3668 393Q3682 326 3701 262Q3721 199 3749 149Q3777 100 3813 69Q3850 39 3897 39Q3944 39 3978 58Q4012 77 4041 114ZM3638 727Q3637 705 3637 673Q3638 641 3640 602Q3643 564 3648 520Q3653 476 3661 430Q3728 490 3775 563Q3822 636 3852 720Q3882 805 3895 898Q3909 992 3909 1093Q3909 1106 3908 1127Q3908 1148 3905 1172Q3902 1196 3896 1220Q3891 1244 3881 1263Q3872 1283 3857 1295Q3843 1308 3823 1308Q3785 1308 3756 1270Q3728 1233 3707 1175Q3687 1117 3673 1047Q3660 977 3652 912Q3644 848 3641 797Q3638 746 3638 727ZM4666 -303Q4666 -360 4655 -417Q4644 -474 4622 -528Q4601 -581 4569 -628Q4537 -674 4496 -708Q4455 -742 4404 -762Q4354 -782 4295 -782Q4240 -782 4191 -760Q4142 -738 4105 -701Q4069 -664 4048 -615Q4027 -565 4027 -510Q4027 -450 4051 -395Q4076 -340 4116 -294Q4156 -248 4206 -213Q4257 -178 4310 -158L4316 -170Q4219 -223 4166 -313Q4113 -403 4113 -514Q4113 -559 4125 -601Q4138 -642 4163 -674Q4188 -706 4225 -726Q4263 -745 4312 -745Q4380 -745 4425 -708Q4470 -671 4497 -616Q4524 -560 4535 -495Q4547 -430 4547 -373Q4547 -312 4537 -253Q4528 -194 4514 -135Q4501 -76 4487 -17Q4473 42 4464 102Q4443 77 4419 54Q4395 32 4367 15Q4340 -1 4309 -11Q4278 -20 4244 -20Q4193 -20 4154 -2Q4116 17 4090 49Q4064 81 4050 123Q4037 165 4037 213Q4037 267 4052 319Q4067 371 4094 417Q4121 463 4158 503Q4195 543 4238 573L4250 567Q4207 505 4182 433Q4158 362 4158 287Q4158 255 4165 218Q4172 181 4187 150Q4203 119 4229 98Q4256 78 4295 78Q4342 78 4383 98Q4424 119 4458 151Q4455 188 4455 225Q4455 276 4462 331Q4469 386 4487 436Q4506 487 4538 528Q4570 570 4621 596L4629 592Q4605 567 4589 536Q4573 506 4563 473Q4554 440 4550 405Q4547 371 4547 338Q4547 246 4565 167Q4584 88 4606 12Q4629 -64 4647 -141Q4666 -217 4666 -303ZM5128 -313Q5128 -348 5093 -348Q5071 -348 5050 -337Q5030 -326 5013 -315Q5008 -312 5004 -309Q5001 -305 4997 -301Q4933 -309 4876 -314Q4819 -319 4779 -319Q4752 -319 4720 -317Q4688 -314 4659 -304Q4631 -293 4612 -272Q4593 -251 4593 -213Q4593 -185 4610 -161Q4628 -137 4659 -137Q4662 -137 4666 -138Q4670 -139 4673 -139Q4736 -153 4805 -163Q4874 -172 4944 -178Q4935 -136 4931 -91Q4927 -45 4925 -2Q4924 41 4924 78Q4925 115 4925 139Q4925 212 4927 299Q4929 387 4933 482Q4938 578 4945 678Q4953 779 4963 878Q4974 978 4988 1072Q5003 1167 5022 1251Q4937 1239 4857 1222Q4777 1206 4710 1186Q4704 1184 4699 1184Q4694 1184 4689 1184Q4674 1184 4661 1191Q4649 1198 4641 1209Q4633 1220 4628 1234Q4624 1248 4624 1262Q4624 1292 4638 1312Q4653 1332 4676 1345Q4699 1358 4728 1364Q4758 1370 4788 1373Q4818 1376 4845 1376Q4873 1376 4894 1376Q4925 1376 4966 1374Q5007 1373 5053 1369Q5058 1387 5064 1403Q5070 1420 5076 1436L5097 1427Q5093 1407 5088 1366Q5140 1361 5194 1354Q5248 1348 5297 1338Q5346 1328 5387 1315Q5428 1303 5455 1288L5445 1272Q5420 1275 5394 1275Q5369 1276 5345 1276Q5285 1276 5217 1271Q5149 1266 5077 1258Q5072 1191 5067 1107Q5062 1024 5058 929Q5055 834 5053 732Q5051 630 5051 526Q5051 423 5053 322Q5055 221 5060 129Q5066 37 5074 -44Q5083 -124 5095 -186Q5122 -187 5148 -188Q5175 -188 5201 -188Q5254 -188 5308 -186Q5362 -183 5414 -172L5424 -188Q5403 -203 5370 -216Q5338 -229 5298 -241Q5259 -253 5213 -264Q5168 -274 5121 -282Q5124 -290 5126 -298Q5128 -305 5128 -313ZM6241 147L6248 143Q6229 107 6207 74Q6186 41 6159 16Q6132 -9 6098 -24Q6064 -39 6020 -39Q5970 -39 5934 -15Q5898 10 5872 50Q5847 91 5831 143Q5816 195 5806 249Q5796 303 5791 355Q5786 408 5782 450Q5763 435 5736 392Q5709 350 5681 293Q5653 236 5627 169Q5602 102 5586 37Q5583 23 5576 8Q5570 -7 5560 -20Q5551 -32 5538 -41Q5525 -49 5509 -49Q5483 -49 5471 -31Q5460 -13 5455 10Q5426 137 5414 253Q5403 369 5403 485Q5403 513 5412 533Q5422 554 5438 567Q5454 581 5476 587Q5498 594 5522 594Q5525 594 5531 594Q5538 594 5544 592Q5550 591 5554 588Q5558 585 5557 580Q5531 449 5532 313Q5533 178 5546 53Q5557 103 5578 166Q5600 230 5628 294Q5657 359 5690 417Q5724 476 5759 516Q5776 535 5793 548Q5811 562 5837 562Q5852 562 5862 556Q5872 550 5878 541Q5885 532 5888 520Q5892 509 5894 498Q5899 469 5904 423Q5909 377 5916 325Q5924 273 5935 220Q5946 168 5963 125Q5980 83 6004 56Q6028 29 6061 29Q6088 29 6113 39Q6139 50 6162 66Q6185 83 6205 104Q6225 126 6241 147ZM6854 147L6860 143Q6838 106 6808 74Q6779 42 6743 18Q6708 -6 6667 -20Q6626 -33 6582 -33Q6517 -33 6467 -11Q6418 11 6382 48Q6346 86 6322 136Q6298 186 6284 240Q6270 295 6264 352Q6258 409 6258 461Q6258 509 6262 559Q6266 610 6274 663Q6243 662 6213 662Q6184 662 6155 662Q6136 662 6112 663Q6088 664 6067 671Q6046 678 6032 692Q6018 706 6018 733Q6018 748 6023 757Q6029 766 6038 770Q6048 775 6060 776Q6073 778 6086 778Q6101 778 6157 773Q6213 768 6292 762Q6317 880 6356 994Q6396 1108 6446 1202L6460 1202Q6428 1093 6403 982Q6379 871 6367 757Q6440 752 6517 748Q6595 745 6669 745Q6778 745 6846 747Q6914 749 6953 752Q6999 756 7022 760L7026 743Q6966 729 6889 716Q6812 704 6725 694Q6638 685 6545 678Q6452 671 6360 667Q6358 647 6358 626Q6358 606 6358 586Q6358 538 6362 480Q6367 422 6379 363Q6391 305 6411 249Q6432 194 6465 151Q6499 109 6546 83Q6593 57 6657 57Q6716 57 6763 83Q6811 109 6854 147ZM7436 147L7444 143Q7418 105 7381 72Q7345 39 7301 15Q7258 -9 7210 -23Q7163 -37 7115 -37Q7047 -37 6988 -20Q6929 -2 6885 34Q6841 70 6816 124Q6791 179 6791 252Q6791 324 6817 386Q6844 449 6890 495Q6937 542 7000 569Q7063 596 7135 596Q7169 596 7198 586Q7228 577 7250 558Q7272 540 7284 513Q7297 486 7297 451Q7297 409 7280 377Q7263 345 7235 321Q7207 297 7171 281Q7136 265 7097 255Q7059 245 7021 240Q6984 236 6953 236L6929 236Q6942 145 7001 97Q7060 49 7164 49Q7238 49 7308 75Q7379 101 7436 147ZM6926 289L6926 266L6951 266Q6987 266 7025 277Q7063 289 7093 311Q7124 334 7144 367Q7164 400 7164 442Q7164 483 7146 510Q7129 537 7086 537Q7042 537 7011 510Q6981 484 6962 445Q6943 407 6934 364Q6926 322 6926 289ZM8155 147L8164 143Q8146 103 8118 71Q8091 39 8059 16Q8027 -6 7993 -19Q7959 -31 7928 -31Q7870 -31 7830 -11Q7790 9 7765 43Q7740 77 7729 123Q7718 169 7718 221Q7718 261 7724 304Q7730 347 7741 387Q7743 393 7745 401Q7747 410 7747 416Q7747 421 7741 424Q7724 430 7705 435Q7686 441 7667 448Q7649 455 7632 464Q7616 473 7604 487Q7603 427 7584 365Q7565 304 7533 247Q7502 191 7460 142Q7418 93 7371 57L7361 67Q7390 99 7414 143Q7438 187 7455 235Q7472 283 7481 332Q7491 381 7491 424Q7491 446 7487 465Q7483 485 7478 503Q7474 521 7470 537Q7466 554 7466 571Q7466 599 7484 615Q7502 631 7530 631Q7545 631 7553 622Q7561 614 7567 602Q7573 590 7581 577Q7589 564 7604 555Q7623 544 7652 539Q7681 534 7713 530Q7745 526 7777 522Q7809 518 7834 508Q7860 499 7876 482Q7892 466 7892 438Q7892 424 7889 410Q7887 397 7882 385Q7870 343 7861 299Q7853 256 7853 213Q7853 176 7858 145Q7864 115 7879 93Q7894 71 7919 59Q7944 47 7983 47Q8039 47 8081 74Q8123 102 8155 147ZM8348 807Q8348 787 8339 767Q8330 747 8315 731Q8301 716 8282 706Q8263 696 8243 696Q8217 696 8201 713Q8186 730 8186 756Q8186 776 8195 795Q8204 815 8218 830Q8233 845 8251 854Q8270 864 8290 864Q8316 864 8332 848Q8348 832 8348 807ZM8622 147L8628 143Q8605 105 8573 73Q8542 42 8504 18Q8467 -5 8424 -18Q8382 -31 8337 -31Q8281 -31 8237 -12Q8194 7 8164 40Q8135 74 8119 119Q8104 165 8104 219Q8104 277 8121 329Q8138 381 8168 426Q8198 472 8238 510Q8279 548 8325 578L8337 569Q8288 511 8257 439Q8227 367 8227 289Q8227 244 8237 202Q8248 161 8270 129Q8293 97 8328 78Q8363 59 8413 59Q8472 59 8525 84Q8579 109 8622 147ZM9155 295Q9155 225 9132 165Q9109 105 9067 61Q9025 17 8966 -8Q8908 -33 8837 -33Q8774 -33 8723 -10Q8673 14 8637 54Q8601 94 8582 147Q8563 201 8563 262Q8563 313 8577 359Q8592 405 8618 444Q8644 484 8680 517Q8716 551 8758 578L8770 569Q8728 520 8704 461Q8680 402 8680 336Q8680 288 8694 238Q8709 189 8737 148Q8765 107 8807 81Q8849 55 8903 55Q8937 55 8967 69Q8997 83 9019 107Q9042 131 9055 161Q9069 192 9069 225Q9069 257 9059 287Q9050 318 9033 344Q9016 371 8992 392Q8968 414 8940 428Q8924 436 8909 440Q8895 444 8878 449Q8871 450 8863 452Q8855 455 8848 458Q8841 462 8836 468Q8831 474 8831 483Q8831 501 8844 516Q8857 531 8875 542Q8893 554 8913 560Q8933 567 8948 567Q8999 567 9038 541Q9077 515 9103 475Q9129 435 9142 387Q9155 339 9155 295ZM10001 147L10010 143Q9992 103 9964 71Q9937 39 9905 16Q9873 -6 9839 -19Q9805 -31 9774 -31Q9716 -31 9676 -11Q9636 9 9611 43Q9586 77 9575 123Q9564 169 9564 221Q9564 261 9570 304Q9576 347 9587 387Q9589 393 9591 401Q9593 410 9593 416Q9593 421 9587 424Q9570 430 9551 435Q9532 441 9513 448Q9495 455 9478 464Q9462 473 9450 487Q9449 427 9430 365Q9411 304 9379 247Q9348 191 9306 142Q9264 93 9217 57L9207 67Q9236 99 9260 143Q9284 187 9301 235Q9318 283 9327 332Q9337 381 9337 424Q9337 446 9333 465Q9329 485 9324 503Q9320 521 9316 537Q9312 554 9312 571Q9312 599 9330 615Q9348 631 9376 631Q9391 631 9399 622Q9407 614 9413 602Q9419 590 9427 577Q9435 564 9450 555Q9469 544 9498 539Q9527 534 9559 530Q9591 526 9623 522Q9655 518 9680 508Q9706 499 9722 482Q9738 466 9738 438Q9738 424 9735 410Q9733 397 9728 385Q9716 343 9707 299Q9699 256 9699 213Q9699 176 9704 145Q9710 115 9725 93Q9740 71 9765 59Q9790 47 9829 47Q9885 47 9927 74Q9969 102 10001 147Z" fill="#292929" style=""></path></g></g></g></svg>